<?xml version="1.0" encoding="iso-8859-1"?>
<!-- Generator: Adobe Illustrator 16.0.0, SVG Export Plug-In . SVG Version: 6.00 Build 0)  -->
<!DOCTYPE svg PUBLIC "-//W3C//DTD SVG 1.1//EN" "http://www.w3.org/Graphics/SVG/1.1/DTD/svg11.dtd">
<svg version="1.1" fill="#26324a" xmlns="http://www.w3.org/2000/svg" xmlns:xlink="http://www.w3.org/1999/xlink" x="0px" y="0px"
	 width="95.098px" height="95.098px" viewBox="0 0 95.098 95.098" style="enable-background:new 0 0 95.098 95.098;"
	 xml:space="preserve">
	<path d="M92.961,0H2.137C0.957,0,0,0.957,0,2.137v90.824c0,1.18,0.957,2.137,2.137,2.137h90.824c1.18,0,2.137-0.957,2.137-2.137
		V2.137C95.098,0.957,94.141,0,92.961,0z M36.647,47.549c0,0.352-0.023,0.697-0.052,1.042l26.026,13.121
		c2.16-1.902,4.988-3.065,8.094-3.065c6.773,0,12.264,5.489,12.264,12.264c0,6.771-5.49,12.264-12.264,12.264
		S58.451,77.683,58.451,70.91c0-0.274,0.022-0.545,0.041-0.813l-26.179-13.2c-2.139,1.815-4.904,2.916-7.93,2.916
		c-6.773,0-12.264-5.49-12.264-12.264c0-6.774,5.491-12.264,12.264-12.264c3.065,0,5.861,1.132,8.012,2.991l26.102-13.161
		c-0.023-0.306-0.046-0.614-0.046-0.927c0-6.772,5.49-12.264,12.264-12.264s12.264,5.491,12.264,12.264s-5.49,12.264-12.264,12.264
		c-3.064,0-5.861-1.132-8.012-2.991L36.601,46.622C36.624,46.929,36.647,47.236,36.647,47.549z"/>

</svg>
