<?xml version="1.0" encoding="iso-8859-1"?>
<!-- Generator: Adobe Illustrator 16.0.0, SVG Export Plug-In . SVG Version: 6.00 Build 0)  -->
<!DOCTYPE svg PUBLIC "-//W3C//DTD SVG 1.1//EN" "http://www.w3.org/Graphics/SVG/1.1/DTD/svg11.dtd">
<svg version="1.1" fill="#26324a" xmlns="http://www.w3.org/2000/svg" xmlns:xlink="http://www.w3.org/1999/xlink" x="0px" y="0px"
	 width="94.168px" height="94.168px" viewBox="0 0 94.168 94.168" style="enable-background:new 0 0 94.168 94.168;"
	 xml:space="preserve">
		<path d="M93.135,27.803H79.167v6.447c0,1.104-0.896,2-2,2H17.001c-1.104,0-2-0.896-2-2v-6.447H1.033
			C0.463,27.803,0,28.265,0,28.836v36.497c0,0.569,0.462,1.033,1.033,1.033h13.968v-6.447c0-1.104,0.896-2,2-2h60.166
			c1.104,0,2,0.896,2,2v6.447h13.968c0.57,0,1.033-0.463,1.033-1.033V28.836C94.167,28.266,93.705,27.803,93.135,27.803z
			 M82.979,52.625c-2.424,0-4.391-1.965-4.391-4.39c0-2.424,1.967-4.39,4.391-4.39s4.39,1.966,4.39,4.39
			C87.367,50.661,85.4,52.625,82.979,52.625z"/>
		<path d="M75.617,22.522c0-0.549-0.219-1.073-0.605-1.46L61.57,7.619c-0.389-0.387-0.913-0.605-1.461-0.605H20.616
			c-1.141,0-2.065,0.925-2.065,2.066v23.754h57.066V22.522z M58.284,25.474c-0.278,0-0.546-0.109-0.742-0.306
			c-0.196-0.197-0.308-0.463-0.308-0.742l0.002-12.498l13.546,13.546H58.284z"/>
		<path d="M18.551,85.088c0,1.141,0.925,2.065,2.065,2.065h52.936c1.142,0,2.065-0.925,2.065-2.065V61.667H18.551V85.088z"/>
</svg>
